<svg class="icon" style="width: 130px; height: 130px;vertical-align: middle;fill: currentColor;overflow: hidden;" viewBox="0 0 1024 1024" version="1.1" xmlns="http://www.w3.org/2000/svg" p-id="21959"><path d="M890.755 1023.949H127.913c-47.25-13.199-80.098-40.067-86.002-91.807-1.443-12.672-1.7-25.533-1.704-38.301-0.098-242.195-0.098-484.39-0.02-726.59 0.004-12.778-0.037-25.66 1.433-38.32 6.292-54.126 31.169-80.944 84.936-89.724 38.035-6.21 76.602-0.89 114.872-2.698 14.99-0.707 21.523 1.352 22.23 20.085 2.304 60.868 35.674 90.983 96.143 91.008 97.22 0.041 194.438 0.02 291.657 0.01 63.567-0.005 95.181-28.972 99.738-93.476 0.926-13.106 3.819-17.965 17.325-17.678 34.947 0.742 69.966-0.804 104.878 0.558 63.505 2.473 105.963 45.345 109.731 109.091 0.502 8.504 0.584 17.049 0.59 25.573 0.03 239.635 0.122 479.275-0.032 718.91-0.05 83.452-15.968 105.87-92.933 133.359zM511.863 296.187c-79.254 0-158.507-0.26-237.76 0.17-22.282 0.117-37.733 16.162-37.436 36.437 0.322 22.035 13.828 35.659 37.578 35.694 155.098 0.241 310.195 0.241 465.293 0.016 27.37-0.041 45.356-16.21 44.613-38.311-0.742-21.974-16.065-33.95-44.756-34.016-75.844-0.179-151.688-0.061-227.532 0.01z m0 199.67c-79.254 0-158.507-0.26-237.76 0.17-22.282 0.117-37.733 16.162-37.436 36.437 0.322 22.035 13.828 35.659 37.578 35.694 155.098 0.241 310.195 0.241 465.293 0.016 27.37-0.041 45.356-16.21 44.613-38.311-0.742-21.974-16.065-33.95-44.756-34.016-75.844-0.179-151.688-0.061-227.532 0.01z m-10.327 195.34c-78.419 0-156.838-0.288-235.252 0.173-23.346 0.138-37.21 13.547-37.22 33.227-0.01 20.085 15.671 36.883 36.478 38.864 4.229 0.405 8.52 0.21 12.779 0.21 150.868 0.01 301.737 0.046 452.606-0.02 30.232-0.016 46.451-13.839 45.8-38.516-0.567-21.539-16.751-33.903-45.053-33.934-76.71-0.097-153.423-0.036-230.138-0.005zM629.648 0c24.534 12.738 40.292 30.713 37.558 60.572-2.61 28.547-20.448 48.545-48.93 48.934-73.288 0.999-146.598 0.61-219.897 0.225-22.635-0.117-39.417-11.335-47.256-32.7-8.186-22.311-5.411-43.701 11.182-61.887C367.312 9.656 373.261 5.022 378.78 0h250.868z" p-id="21960"></path></svg>