<svg class="icon" style="width: 130px; height: 130px;vertical-align: middle;fill: currentColor;overflow: hidden;" viewBox="0 0 1024 1024" version="1.1" xmlns="http://www.w3.org/2000/svg" p-id="25816"><path d="M512 644.096v182.272c0 9.216 5.12 17.408 13.312 21.504l77.824 38.912c5.12 3.072 3.072 10.24-2.048 10.24H64.512V792.576c0-96.256 77.824-175.104 175.104-175.104h245.76c14.336 0 26.624 12.288 26.624 26.624zM370.688 115.712c146.432-18.432 269.312 104.448 250.88 250.88-12.288 99.328-93.184 180.224-192.512 192.512-146.432 18.432-269.312-104.448-250.88-250.88 12.288-99.328 93.184-180.224 192.512-192.512zM792.576 489.472L931.84 569.344c17.408 10.24 28.672 28.672 28.672 48.128v157.696c0 20.48-11.264 38.912-28.672 48.128l-138.24 78.848c-17.408 10.24-37.888 10.24-55.296 0l-138.24-78.848c-17.408-10.24-28.672-28.672-28.672-48.128V617.472c0-20.48 11.264-38.912 28.672-48.128L737.28 489.472c17.408-9.216 37.888-9.216 55.296 0z m-37.888 272.384c45.056 7.168 82.944-30.72 75.776-75.776-4.096-27.648-27.648-51.2-55.296-55.296-45.056-7.168-82.944 30.72-75.776 75.776 4.096 28.672 27.648 51.2 55.296 55.296z" p-id="25817"></path></svg>