<svg class="icon" style="width: 130px; height: 130px;vertical-align: middle;fill: currentColor;overflow: hidden;" viewBox="0 0 1024 1024" version="1.1" xmlns="http://www.w3.org/2000/svg" p-id="29253"><path d="M512 1024C229.248 1024 0 794.88 0 512S229.248 0 512 0s512 229.12 512 512-229.248 512-512 512z m0-928C282.624 96 96 282.56 96 512s186.624 416 416 416 416-186.56 416-416S741.376 96 512 96z m-80 640c-26.496 0-48-21.44-48-48 0-14.08 6.08-26.56 15.648-35.2l-0.096-0.32L552.96 512 399.552 371.52l0.096-0.32C390.08 362.56 384 350.08 384 336c0-26.56 21.504-48 48-48 12.512 0 23.776 4.8 32.352 12.8l0.096-0.32 192 176C666.336 485.76 672 498.56 672 512c0 13.44-5.664 26.24-15.552 35.52l-192 176-0.096-0.32c-8.576 8-19.84 12.8-32.352 12.8z" p-id="29254"></path></svg>