<svg class="icon" style="width: 1em; height: 1em;vertical-align: middle;fill: currentColor;overflow: hidden;" viewBox="0 0 1024 1024" version="1.1" xmlns="http://www.w3.org/2000/svg" p-id="9011"><path d="M874.65 650.638h127.994c11.78 0 21.331 9.55 21.331 21.331v21.332c0 11.782-9.55 21.332-21.331 21.332H874.649c-11.78 0-21.331-9.55-21.331-21.332V671.97c-0.001-11.78 9.55-21.331 21.331-21.331z m-85.33-149.326h213.324c11.78 0 21.331 9.55 21.331 21.331v21.332c0 11.782-9.55 21.332-21.331 21.332H789.32c-11.781 0-21.332-9.55-21.332-21.332v-21.332c0-11.78 9.55-21.331 21.332-21.331z m-85.33-149.326h298.653c11.78 0 21.331 9.55 21.331 21.331v21.332c0 11.782-9.55 21.332-21.331 21.332H703.99c-11.782 0-21.332-9.55-21.332-21.332v-21.332c-0.001-11.78 9.55-21.331 21.332-21.331zM234.68 287.99C234.987 96.001 405.472 96.057 426.67 96c21.2-0.055 191.721 0.001 191.991 191.99 0 0-0.27 117.36 0 127.994-0.27 106.701-85.016 128.622-85.33 170.659 0.514 106.51 218.484 134.493 277.32 191.99 50.89 48.564 42.666 149.327 42.666 149.327H0.025s0-106.316 42.664-149.326c65.784-70.42 277.86-84.111 277.32-191.991 0.282-41.758-85.022-63.802-85.33-170.659 0.308-5.448 0.364-127.992 0-127.994z" p-id="9012"></path></svg>