<svg class="icon" style="width: 1.1328125em; height: 1em;vertical-align: middle;fill: currentColor;overflow: hidden;" viewBox="0 0 1160 1024" version="1.1" xmlns="http://www.w3.org/2000/svg" p-id="29618"><path d="M1018.538667 209.373867H609.621333a17.271467 17.271467 0 0 1-14.199466-7.304534l-24.712534-34.747733A73.659733 73.659733 0 0 0 510.702933 136.533333h-368.64A73.386667 73.386667 0 0 0 68.266667 209.237333v605.525334A73.386667 73.386667 0 0 0 141.9264 887.466667h121.105067v-41.7792h43.690666V887.466667h531.524267l-0.546133-40.96h52.701866v40.96h128.6144A73.386667 73.386667 0 0 0 1092.266667 814.762667V281.941333a73.386667 73.386667 0 0 0-73.728-72.567466zM184.9344 666.077867a153.326933 153.326933 0 0 1 117.282133-93.934934v-51.336533a83.7632 83.7632 0 0 1-35.4304-82.602667C266.786133 387.959467 263.918933 341.333333 339.285333 341.333333c72.4992 0 72.4992 46.626133 72.4992 96.8704a84.650667 84.650667 0 0 1-35.908266 81.92V573.44a160.768 160.768 0 0 1 121.992533 92.637867H184.9344zM969.386667 650.513067a16.110933 16.110933 0 0 1-1.8432 8.260266 36.386133 36.386133 0 0 1-35.0208 27.306667H630.510933a36.386133 36.386133 0 0 1-35.0208-27.306667 16.657067 16.657067 0 0 1-1.570133-8.260266 36.727467 36.727467 0 0 1 36.795733-36.317867h302.216534a36.727467 36.727467 0 0 1 36.795733 36.317867s-0.341333-0.136533-0.341333 0z m-36.795734-109.226667H630.510933a36.386133 36.386133 0 1 1 0-72.704h302.216534a36.386133 36.386133 0 1 1 0 72.9088z m0-135.3728H630.510933a36.386133 36.386133 0 1 1 0-72.704h302.216534a36.386133 36.386133 0 1 1 0 72.9088z" p-id="29619"></path></svg>