<svg class="icon" style="width: 1em; height: 1em;vertical-align: middle;fill: currentColor;overflow: hidden;" viewBox="0 0 1024 1024" version="1.1" xmlns="http://www.w3.org/2000/svg" p-id="33333"><path d="M802.133333 686.933333c-72.533333 0-128 59.733333-128 128 0 72.533333 59.733333 128 128 128s128-59.733333 128-128-55.466667-128-128-128m85.333334 98.133334l-93.866667 93.866666c-8.533333 8.533333-17.066667 8.533333-21.333333 4.266667l-55.466667-55.466667c-4.266667-4.266667-4.266667-12.8 0-17.066666 4.266667-4.266667 12.8-4.266667 17.066667 0l46.933333 46.933333 89.6-85.333333c4.266667-4.266667 12.8-4.266667 17.066667 0 4.266667-4.266667 4.266667 4.266667 0 12.8M371.2 166.4h196.266667c21.333333 0 38.4-21.333333 38.4-42.666667s-17.066667-42.666667-38.4-42.666666H375.466667c-21.333333 0-38.4 21.333333-38.4 42.666666-4.266667 21.333333 12.8 42.666667 34.133333 42.666667m418.133333 482.133333c21.333333 0 42.666667 4.266667 64 12.8V226.133333c0-59.733333-34.133333-102.4-98.133333-102.4h-89.6v12.8c0 38.4-25.6 76.8-59.733333 76.8H332.8C298.666667 213.333333 273.066667 174.933333 273.066667 136.533333v-12.8H183.466667c-72.533333 0-89.6 42.666667-89.6 102.4v588.8c0 64 25.6 98.133333 98.133333 98.133334h473.6c-25.6-29.866667-38.4-64-38.4-106.666667-4.266667-85.333333 68.266667-157.866667 162.133333-157.866667m-507.733333-298.666666h388.266667c12.8 0 25.6 12.8 25.6 29.866666 0 12.8-12.8 29.866667-29.866667 29.866667h-384c-17.066667-4.266667-25.6-17.066667-25.6-34.133333s12.8-25.6 25.6-25.6m174.933333 388.266666H281.6c-12.8 0-25.6-17.066667-25.6-29.866666 0-12.8 12.8-29.866667 25.6-29.866667h174.933333c12.8 0 25.6 12.8 25.6 29.866667 4.266667 12.8-8.533333 29.866667-25.6 29.866666m-179.2-162.133333c-12.8 0-29.866667-17.066667-29.866666-34.133333 0-12.8 12.8-25.6 25.6-25.6h388.266666c12.8 0 25.6 12.8 25.6 25.6s-8.533333 34.133333-25.6 34.133333h-384" p-id="33334"></path></svg>