<svg class="icon" style="width: 1em; height: 1em;vertical-align: middle;fill: currentColor;overflow: hidden;" viewBox="0 0 1024 1024" version="1.1" xmlns="http://www.w3.org/2000/svg" p-id="44643"><path d="M475.136 269.312m-230.912 0a230.912 230.912 0 1 0 461.824 0 230.912 230.912 0 1 0-461.824 0ZM600.064 753.664c0-91.136 51.2-154.624 118.272-176.64-71.168-42.496-154.112-67.072-243.2-67.072C212.992 509.952 0.512 722.432 0 984.064h719.872c-65.024-72.704-119.808-156.16-119.808-230.4zM831.488 675.328c-74.24-86.016-192.512-43.008-192.512 62.976 0 106.496 192.512 247.296 192.512 247.296S1024 844.8 1024 738.304c0-106.496-118.272-148.992-192.512-62.976z" p-id="44644"></path></svg>