<svg class="icon" style="width: 1em; height: 1em;vertical-align: middle;fill: currentColor;overflow: hidden;" viewBox="0 0 1024 1024" version="1.1" xmlns="http://www.w3.org/2000/svg" p-id="10359"><path d="M1011.879774 207.114124l-125.830508 125.367684h-145.789831l-22.880904 22.90983L629.788927 442.576271l-54.497628 54.295141-46.108926 45.906441a35.348249 35.348249 0 0 1-50.679322-0.75209c-13.248362-14.029379-11.859887-36.418531 1.822373-50.014012l91.697175-91.378983 7.000226-7.000226 87.87887-87.531751 23.430508-23.343729V137.48791l43.389831-43.389831 82.440678-81.977853a28.926554 28.926554 0 0 1 3.384407-2.892655l0.83887-0.607458a31.819209 31.819209 0 0 1 3.586892-2.227345l0.318192-0.144632a31.529944 31.529944 0 0 1 3.52904-1.504181l0.896723-0.318192a29.591864 29.591864 0 0 1 3.818305-0.983503h0.549605a28.11661 28.11661 0 0 1 3.500113-0.549605h0.867796a29.186893 29.186893 0 0 1 3.905085 0.144633h0.636384a32.947345 32.947345 0 0 1 3.297627 0.607458l0.92565 0.202486a31.992768 31.992768 0 0 1 3.673672 1.185988l0.520678 0.231413a33.063051 33.063051 0 0 1 3.066215 1.475254l0.83887 0.462825a34.393672 34.393672 0 0 1 3.210848 2.140565l0.376045 0.289265a32.802712 32.802712 0 0 1 2.60339 2.343051 8.186215 8.186215 0 0 1 0.723163 0.694238 31.124972 31.124972 0 0 1 2.516611 2.892655s0 0.202486 0.202486 0.289265a26.757062 26.757062 0 0 1 1.938079 3.124068c0.173559 0.318192 0.347119 0.607458 0.491751 0.92565a33.468023 33.468023 0 0 1 1.619887 3.760452v0.202486a28.608362 28.608362 0 0 1 1.012429 3.905085c0 0.376045 0.144633 0.723164 0.202486 1.099209a31.819209 31.819209 0 0 1 0.433899 4.454689l2.51661 117.731073h2.545536l115.706215 2.458757a30.748927 30.748927 0 0 1 16.227797 5.20678 29.447232 29.447232 0 0 1 4.859661 3.760452 31.240678 31.240678 0 0 1 5.380339 6.942373 32.802712 32.802712 0 0 1 3.2687 8.099435 30.662147 30.662147 0 0 1-8.272994 29.591864zM497.999548 249.317966c-154.120678 0-279.488362 124.904859-279.488362 278.475932s125.367684 278.475932 279.488362 278.475933 279.517288-124.933785 279.517288-278.475933a275.496497 275.496497 0 0 0-21.521356-107.028248l-101.011525 100.63548c0 2.082712 0.231412 4.165424 0.231412 6.277062a157.215819 157.215819 0 1 1-158.112542-156.608361l102.949604-102.602486a278.128814 278.128814 0 0 0-102.052881-19.149379z m440.262147 135.202712a73.994124 73.994124 0 0 1-52.241356 21.550282h-56.493559a349.027797 349.027797 0 0 1 21.839548 121.722938c0 194.126102-158.517514 352.065085-353.36678 352.065085S144.632768 721.92 144.632768 527.793898 303.150282 175.699887 497.999548 175.699887a351.573333 351.573333 0 0 1 118.59887 20.48V137.48791a73.415593 73.415593 0 0 1 21.637062-52.067797l23.372656-23.141243a494.210169 494.210169 0 0 0-163.463955-27.682712C224.990734 34.480452 2.892655 255.768588 2.892655 527.793898S224.990734 1021.107345 497.999548 1021.107345s495.106893-221.288136 495.106893-493.28452a489.061243 489.061243 0 0 0-29.707571-168.294689z" p-id="10360"></path></svg>