<svg class="icon" style="width: 130px; height: 130px;vertical-align: middle;fill: currentColor;overflow: hidden;" viewBox="0 0 1024 1024" version="1.1" xmlns="http://www.w3.org/2000/svg" p-id="3963"><path d="M940.8 507.3L541 107.5c-16-16-42-16-58 0L83.2 507.3c-12 12-3.5 32.6 13.5 32.6H192v281.8c0 55.2 44.8 100 100 100h100.6c22.1 0 40-17.9 40-40V682.4c0-11 9-20 20-20h119.2c11 0 20 9 20 20v199.3c0 22.1 17.9 40 40 40h100.4c55.2 0 100-44.8 100-100V540h95.1c17 0 25.6-20.6 13.5-32.7z" p-id="3964"></path></svg>