<svg class="icon" style="width: 130px; height: 130px;vertical-align: middle;fill: currentColor;overflow: hidden;" viewBox="0 0 1024 1024" version="1.1" xmlns="http://www.w3.org/2000/svg" p-id="49811"><path d="M0 641.989411c0-26.282001 21.29866-47.580661 47.648926-47.580661h334.361663c26.282001 0 47.580661 21.29866 47.580661 47.580661v334.361663a47.580661 47.580661 0 0 1-47.580661 47.648926H47.648926A47.580661 47.580661 0 0 1 0 976.351074V641.989411z m525.093898 0c0-26.282001 21.29866-47.580661 47.648926-47.580661h334.361663c26.282001 0 47.580661 21.29866 47.580661 47.580661v334.361663a47.580661 47.580661 0 0 1-47.580661 47.648926H572.742824a47.580661 47.580661 0 0 1-47.648926-47.648926V641.989411z m181.106878-628.037423a47.648926 47.648926 0 0 1 67.377493 0l236.469743 236.469743a47.580661 47.580661 0 0 1 0 67.309228l-236.469743 236.469743a47.648926 47.648926 0 0 1-67.377493 0L469.799298 317.799224a47.580661 47.580661 0 0 1 0-67.377493L706.200776 13.951988zM0 116.895513c0-26.282001 21.29866-47.580661 47.648926-47.580661h334.361663c26.282001 0 47.580661 21.29866 47.580661 47.580661V451.257176a47.580661 47.580661 0 0 1-47.580661 47.648926H47.648926A47.580661 47.580661 0 0 1 0 451.257176V116.895513z" p-id="49812"></path></svg>
