<svg class="icon" style="width: 130px; height: 130px;vertical-align: middle;fill: currentColor;overflow: hidden;" viewBox="0 0 1024 1024" version="1.1" xmlns="http://www.w3.org/2000/svg" p-id="8723"><path d="M509.954 22.5c-270.508 0-489.797 219.291-489.797 489.797s219.291 489.797 489.797 489.797c270.474 0 489.797-219.291 489.797-489.797 0-270.474-219.325-489.797-489.797-489.797zM354.128 426.967h-55.735v-73.894h-72.452v278.133h72.452v-78.682h55.735v92.57c0 22.811-11.407 34.213-34.213 34.213h-116.715c-22.148 0-33.239-11.373-33.239-34.213v-305.633c0-22.95 11.093-34.427 33.239-34.427h116.715c22.811 0 34.213 11.475 34.213 34.427v87.498zM531.36 679.283l-61.716-173.875v-33.728h54.996v-118.638h-70.566v326.206h-55.979v-374.24h148.513c22.497 0 33.728 11.475 33.728 34.427v136.095c0 15.782-5.356 25.995-16.022 30.614-5.735 2.378-17.842 3.603-36.349 3.603l61.716 169.573h-58.321zM850.147 679.283h-53.806v-184.618c0-9.727 1.122-23.301 3.36-40.653l-48.316 191.091h-28.439l-48.564-191.091c2.236 17.7 3.36 31.242 3.36 40.653v184.618h-53.806v-374.277h52.865l58.843 206.869c0.627 2.236 1.122 7.907 1.434 16.967 0-3.993 0.489-9.654 1.434-16.967l58.843-206.869h52.865v374.277z" p-id="8724"></path></svg>