<svg class="icon" style="width: 130px; height: 130px;vertical-align: middle;fill: currentColor;overflow: hidden;" viewBox="0 0 1024 1024" version="1.1" xmlns="http://www.w3.org/2000/svg" p-id="10621"><path d="M282.237 174.444c21.841 0 39.546-17.705 39.546-39.546v-64.46c0-0.002 0-0.004 0-0.007 0-21.841-17.705-39.546-39.546-39.546-21.841 0-39.546 17.705-39.546 39.546 0 0.002 0 0.005 0 0.007v64.459c0 21.841 17.705 39.546 39.546 39.546zM743.146 174.444c21.841 0 39.546-17.705 39.546-39.546v-64.46c0-0.002 0-0.004 0-0.007 0-21.841-17.705-39.546-39.546-39.546-21.841 0-39.546 17.705-39.546 39.546 0 0.002 0 0.005 0 0.007v64.459c0 21.841 17.705 39.546 39.546 39.546z" p-id="10622"></path><path d="M942.656 143.4c-17.96-18.324-42.966-29.682-70.627-29.682-0.752 0-1.502 0.009-2.249 0.024l-24.407-0.002c0 0 0 0 0 0-10.92 0-19.773 8.852-19.773 19.773 0 45.265-36.694 81.959-81.959 81.959-45.265 0-81.959-36.694-81.959-81.959 0-10.92-8.852-19.773-19.773-19.773 0 0 0 0 0 0h-257.049c0 0 0 0 0 0-10.92 0-19.773 8.852-19.773 19.773 0 0 0 0 0 0 0 45.265-36.694 81.959-81.959 81.959-45.265 0-81.959-36.694-81.959-81.959 0-10.92-8.852-19.773-19.773-19.773 0 0 0 0 0 0h-28.275c-0.288-0.003-0.628-0.005-0.969-0.005-26.963 0-51.404 10.793-69.24 28.295-19.87 19.149-32.221 46.016-32.221 75.765 0 0.4 0.002 0.798 0.007 1.197l-0.001 654.623c0 0.009 0 0.019 0 0.028 0 28.228 11.831 53.693 30.803 71.706 18.082 18.938 43.47 30.688 71.603 30.688 0.007 0 0.014 0 0.019 0h714.793c0.347 0.004 0.756 0.007 1.165 0.007 29.803 0 56.723-12.347 75.92-32.206 17.515-17.851 28.309-42.292 28.309-69.255 0-0.341-0.002-0.682-0.006-1.021v-657.4c0.005-0.356 0.008-0.777 0.008-1.198 0-28.136-11.753-53.526-30.617-71.53zM706.368 362.683h-375.687c-16.38 0-29.659-13.279-29.659-29.66s13.279-29.66 29.66-29.66h375.687c16.38 0 29.66 13.28 29.66 29.66s-13.28 29.66-29.66 29.66z" p-id="10623"></path></svg>