<svg class="icon" style="width: 130px; height: 130px;vertical-align: middle;fill: currentColor;overflow: hidden;" viewBox="0 0 1024 1024" version="1.1" xmlns="http://www.w3.org/2000/svg" p-id="14673"><path d="M817.4 108.1H264.7c-50 3.1-89.8 42.9-92.9 92.9v46.3a68.615 68.615 0 0 0-42.5 59.9c1.4 26.5 17.9 49.9 42.5 59.9V460a68.615 68.615 0 0 0-42.5 59.9c1.4 26.5 17.9 49.9 42.5 59.9v92.9a68.615 68.615 0 0 0-42.5 59.9c1.4 26.5 17.9 49.9 42.5 59.9v45.9c0 47 46.1 77 93.1 77h552.5c20.9 1.5 41.4-6.1 56.2-20.8 14.8-14.8 22.5-35.2 21-56.1V201c-0.1-47-30.2-92.9-77.2-92.9zM668.6 469.5c11.7 0 21.3 9.5 21.3 21.3 0 11.7-9.5 21.3-21.3 21.3H554.4v63.8h114.2c11.7 0 21.3 9.5 21.3 21.3 0 11.7-9.5 21.3-21.3 21.3H554.4v71.6c0 11.7-9.5 21.3-21.3 21.3-11.7 0-21.3-9.5-21.3-21.3v-71.6h-98.4c-11.7 0-21.3-9.5-21.3-21.3 0-11.7 9.5-21.3 21.3-21.3h98.4V512h-98.4c-11.7 0-21.3-9.5-21.3-21.3 0-11.7 9.5-21.3 21.3-21.3H504L392.2 360.9c-4-3.2-6.3-8-6.3-13.1s2.3-9.9 6.3-13.1c8.3-8.2 21.7-8.2 30 0L534.7 447l112.7-113.3c8.3-8.2 21.7-8.2 30 0 4 3.6 6.2 8.7 6.2 14 0 5.3-2.3 10.4-6.2 14L564.8 470.3h103.7v-0.8z m0 0" p-id="14674"></path></svg>
