<svg class="icon" style="width: 130px; height: 130px;vertical-align: middle;fill: currentColor;overflow: hidden;" viewBox="0 0 1024 1024" version="1.1" xmlns="http://www.w3.org/2000/svg" p-id="20601"><path d="M43.2 299.2v-60.8c0-27.2 9.6-52.8 27.2-72 16-19.2 40-28.8 65.6-30.4H240V46.4C240 22.4 257.6 3.2 281.6 1.6h4.8c25.6 0 46.4 20.8 46.4 44.8v91.2h376V46.4c0-24 17.6-43.2 41.6-44.8h4.8C779.2 0 800 20.8 800 44.8v91.2h89.6c24 0 48 11.2 65.6 30.4 17.6 19.2 27.2 44.8 27.2 72v683.2c0 27.2-9.6 52.8-27.2 72-16 19.2-40 28.8-65.6 30.4H134.4c-25.6 0-48-11.2-65.6-30.4-17.6-19.2-27.2-44.8-27.2-72V384h937.6v-84.8H43.2z m659.2 467.2c16 0 32-8 40-22.4 12.8-22.4 4.8-51.2-19.2-64-6.4-3.2-14.4-6.4-22.4-6.4l-140.8-3.2-1.6-113.6c-1.6-24-20.8-44.8-46.4-44.8-25.6 0-46.4 19.2-46.4 44.8l1.6 160c0 25.6 20.8 46.4 46.4 46.4l188.8 3.2z" p-id="20602"></path></svg>