<!--<svg width="128" height="128" xmlns="http://www.w3.org/2000/svg"><path d="M1.585 12.087c0 6.616 3.974 11.98 8.877 11.98 4.902 0 8.877-5.364 8.877-11.98 0-6.616-3.975-11.98-8.877-11.98-4.903 0-8.877 5.364-8.877 11.98zM125.86.107H35.613c-1.268 0-2.114 1.426-2.114 2.852v18.255c0 1.712 1.057 2.853 2.114 2.853h90.247c1.268 0 2.114-1.426 2.114-2.853V2.96c0-1.711-1.057-2.852-2.114-2.852zM.106 62.86c0 6.615 3.974 11.979 8.876 11.979 4.903 0 8.877-5.364 8.877-11.98 0-6.616-3.974-11.98-8.877-11.98-4.902 0-8.876 5.364-8.876 11.98zM124.17 50.88H33.921c-1.268 0-2.114 1.425-2.114 2.851v18.256c0 1.711 1.057 2.852 2.114 2.852h90.247c1.268 0 2.114-1.426 2.114-2.852V53.73c0-1.426-.846-2.852-2.114-2.852zM.106 115.913c0 6.616 3.974 11.98 8.876 11.98 4.903 0 8.877-5.364 8.877-11.98 0-6.616-3.974-11.98-8.877-11.98-4.902 0-8.876 5.364-8.876 11.98zm124.064-11.98H33.921c-1.268 0-2.114 1.426-2.114 2.853v18.255c0 1.711 1.057 2.852 2.114 2.852h90.247c1.268 0 2.114-1.426 2.114-2.852v-18.255c0-1.427-.846-2.853-2.114-2.853z"/></svg>-->
<svg t="1624844798088" class="icon" viewBox="0 0 1024 1024" version="1.1" xmlns="http://www.w3.org/2000/svg" width="128" height="128"><path d="M849.46488889 388.20977778c0-203.43466667-147.68355555-351.00444445-351.00444444-351.00444445-193.536 0-351.00444445 157.46844445-351.00444445 351.00444445 0 142.90488889 194.10488889 384.91022222 298.43911111 514.95822222l7.73688889 9.55733333c10.92266667 13.65333333 27.30666667 21.504 44.94222222 21.504 17.52177778 0 33.90577778-7.85066667 44.94222223-21.504l7.73688888-9.55733333c104.10666667-130.048 298.21155555-372.05333333 298.21155556-514.95822222z m-352.82488889 101.71733333c-71.56622222 0-129.70666667-58.14044445-129.70666667-129.70666666s58.14044445-129.70666667 129.70666667-129.70666667 129.70666667 58.14044445 129.70666667 129.70666667-58.14044445 129.70666667-129.70666667 129.70666666z" fill="#B5B5B5" p-id="4959" data-spm-anchor-id="a313x.7781069.0.i4" class="selected"></path><path d="M498.46044445 6.59911111c-210.37511111 0-381.61066667 171.12177778-381.61066667 381.61066667 0 153.6 198.54222222 401.06666667 305.152 534.07288889l7.62311111 9.55733333c16.83911111 20.93511111 41.87022222 32.99555555 68.72177778 32.99555555s51.88266667-12.06044445 68.72177778-32.99555555l7.73688888-9.55733333C681.52888889 789.27644445 879.95733333 541.80977778 879.95733333 388.20977778c0-221.07022222-160.42666667-381.61066667-381.49688888-381.61066667z m0 927.63022222c-17.52177778 0-33.90577778-7.85066667-44.94222223-21.504l-7.73688889-9.55733333c-104.33422222-130.048-298.43911111-372.05333333-298.43911111-514.95822222 0-193.536 157.46844445-351.00444445 351.00444445-351.00444445 203.43466667 0 351.00444445 147.68355555 351.00444444 351.00444445 0 142.90488889-194.10488889 384.91022222-298.43911111 514.95822222l-7.73688889 9.55733333c-10.80888889 13.65333333-27.19288889 21.504-44.71466666 21.504z" fill="#B5B5B5" p-id="4960"></path><path d="M496.64 360.22044445m-99.21422222 0a99.21422222 99.21422222 0 1 0 198.42844444 0 99.21422222 99.21422222 0 1 0-198.42844444 0Z" fill="#B5B5B5" p-id="4961"></path><path d="M626.34666667 360.22044445c0-71.56622222-58.14044445-129.70666667-129.70666667-129.70666667s-129.70666667 58.14044445-129.70666667 129.70666667 58.14044445 129.70666667 129.70666667 129.70666666 129.70666667-58.14044445 129.70666667-129.70666666z m-228.92088889 0c0-54.72711111 44.48711111-99.21422222 99.21422222-99.21422223s99.21422222 44.48711111 99.21422222 99.21422223-44.48711111 99.21422222-99.21422222 99.21422222-99.21422222-44.48711111-99.21422222-99.21422222z" fill="#B5B5B5" p-id="4962" data-spm-anchor-id="a313x.7781069.0.i3"></path></svg>
