<svg t="1629621257656" class="icon" viewBox="0 0 1024 1024" version="1.1" xmlns="http://www.w3.org/2000/svg" p-id="1884" width="130" height="130"><path d="M862.506667 558.933333h-122.368a24.021333 24.021333 0 0 1-23.936-24.064V386.944a36.224 36.224 0 0 0-15.274667-29.610667l-170.368-120.490666V153.429333c49.194667 8.96 135.68 32.725333 181.845333 8.832 6.528-3.413333 9.770667-10.581333 9.813334-17.92 0.128-21.888 0.512-49.066667 0.554666-71.381333 0-16.64-16.853333-27.989333-33.194666-25.557333-52.309333 7.893333-127.744 0.554667-168.021334-4.522667a24.746667 24.746667 0 0 0-27.818666 24.362667v169.6L323.413333 357.376a36.224 36.224 0 0 0-15.274666 29.568v147.882667a24.021333 24.021333 0 0 1-23.893334 24.106666H161.749333a33.877333 33.877333 0 0 0-33.792 34.048v352.213334c0 19.968 16.085333 36.138667 35.882667 36.138666H349.44c19.84 0 35.882667-16.213333 35.882667-36.138666v-3.328c0-67.285333 48.768-127.829333 115.370666-133.717334 75.093333-6.613333 138.069333 52.864 138.069334 127.104v9.941334c0 19.968 16.042667 36.138667 35.882666 36.138666h185.514667c19.797333 0 35.84-16.213333 35.84-36.138666v-352.213334a33.536 33.536 0 0 0-33.450667-34.048z m-350.208-8.576a88.32 88.32 0 0 1-49.28-15.061333 89.813333 89.813333 0 0 1-13.44-137.386667 88.533333 88.533333 0 0 1 96.682666-19.328c16.213333 6.741333 30.037333 18.176 39.808 32.853334 9.728 14.72 14.933333 32 14.933334 49.621333a89.088 89.088 0 0 1-88.704 89.301333z" p-id="1885" fill="#3cc51f"></path></svg>
