<svg class="icon" style="width: 130px; height: 130px;vertical-align: middle;fill: currentColor;overflow: hidden;" viewBox="0 0 1024 1024" version="1.1" xmlns="http://www.w3.org/2000/svg" p-id="4354"><path d="M86.528 108.032h839.168v120.832H86.528V108.032zM86.528 977.92l104.96-69.12L296.448 977.92l104.96-69.12L506.368 977.92l104.96-69.12 104.96 69.12 104.96-69.12 104.96 69.12V286.72h-839.68v691.2zM344.064 400.896c50.688 18.432 167.936 123.904 167.936 123.904 86.528-82.944 163.84-117.76 163.84-117.76l12.8 27.136c-39.424 21.504-141.824 123.904-141.824 123.904 35.84 29.696 151.04 175.616 151.04 175.616-5.12 2.56-62.464 53.76-62.464 53.76-47.104-91.136-133.12-183.296-133.12-183.296-92.16 100.864-129.024 183.296-129.024 183.296l-61.44-50.176c26.624-32.256 155.648-171.52 155.648-171.52-39.424-55.296-155.136-138.24-155.136-138.24l31.744-26.624z" fill="" p-id="4355"></path></svg>