<svg class="icon" style="width: 130px; height: 130px;vertical-align: middle;fill: currentColor;overflow: hidden;" viewBox="0 0 1024 1024" version="1.1" xmlns="http://www.w3.org/2000/svg" p-id="4166"><path d="M511.997414 120.23596M511.997414 54.30303C258.638869 54.30303 52.531717 260.408889 52.531717 513.767434 52.531717 767.133737 258.638869 973.239596 511.997414 973.239596c253.36501 0 459.470869-206.105859 459.470869-459.472162C971.468283 260.408889 765.362424 54.30303 511.997414 54.30303zM793.478465 380.169051 469.93196 703.989657c-0.099556 0.065939-0.199111 0.095677-0.265051 0.196525-0.099556 0.063354-0.130586 0.199111-0.195232 0.265051-2.103596 2.068687-4.662303 3.280162-7.126626 4.657131-1.211475 0.654222-2.199273 1.706667-3.475394 2.235475-3.940848 1.576081-8.10796 2.391919-12.273778 2.391919-4.20202 0-8.437657-0.815838-12.409535-2.459152-1.31103-0.522343-2.328566-1.671758-3.604687-2.363475-2.434586-1.375677-4.993293-2.620768-7.060687-4.657131-0.064646-0.068525-0.094384-0.199111-0.160323-0.265051-0.065939-0.098263-0.200404-0.098263-0.266343-0.193939l-129.241212-132.821333c-12.634505-12.961616-12.339717-33.77002 0.655515-46.409697 12.965495-12.600889 33.737697-12.369455 46.407111 0.66198l105.906424 108.825859 300.020364-300.060444c12.735354-12.895677 33.542465-13.02497 46.407111-0.259879C806.115556 346.466263 806.243556 367.239758 793.478465 380.169051z" p-id="4167"></path></svg>