<svg t="1622094513860" class="icon" viewBox="0 0 1191 1024" version="1.1" xmlns="http://www.w3.org/2000/svg" p-id="2390" width="80" height="80"><path d="M1191.546738 725.051722c-4.319357-154.249449-102.957085-289.899598-248.102372-341.154726a43.379748 43.379748 0 0 1-28.652976-44.310644v-19.288163C914.977569 155.715796 790.572643 17.831497 627.256268 1.596673c-163.334993-16.234824-312.296953 94.448697-344.357007 255.866044a40.642915 40.642915 0 0 1-24.59427 29.676961C102.37993 350.887428 0.335123 502.809637 0 671.674152c0 10.798392 0 21.596785 1.545287 32.171761H0v21.410606C0 890.248506 133.360145 1023.999628 297.886685 1023.999628h200.068144a42.411617 42.411617 0 0 0 30.161027-12.399534c8.005705-8.005705 12.492623-18.859951 12.492623-30.198262V831.862716a25.190043 25.190043 0 0 0-27.666226-21.410605H416.855179c-51.701958 0-74.955737-49.89602-35.374044-75.551511l172.960457-145.908621a63.859458 63.859458 0 0 1 82.272578 0l172.960456 145.908621c39.581693 25.636873 16.327914 75.55151-35.374043 75.551511h-96.068456a25.190043 25.190043 0 0 0-27.684844 21.410605v149.371554c0 11.319694 4.505536 22.192558 12.511241 30.179645 8.005705 8.005705 18.859951 12.474005 30.161027 12.418151H893.660054c164.526539 0 297.886685-133.769739 297.886684-298.761726z" p-id="2391"></path></svg>
