<svg style="width: 130px; height: 130px;vertical-align: middle;fill: currentColor;overflow: hidden;" viewBox="0 0 1024 1024" version="1.1" xmlns="http://www.w3.org/2000/svg" p-id="3234"><path d="M819.561199 205.883598c81.99224 81.99224 124.613757 186.378836 127.86455 312.798589-3.250794 120.640564-45.87231 221.415168-127.86455 302.685009-81.99224 81.269841-186.378836 123.168959-312.798589 126.419753-120.640564-3.250794-221.415168-45.511111-302.685009-126.419753-81.269841-81.269841-123.168959-182.044444-126.419753-302.685009 3.250794-126.419753 45.511111-230.44515 126.419753-312.798589 81.269841-81.99224 182.044444-124.613757 302.685009-127.86455C633.182363 81.269841 737.568959 123.891358 819.561199 205.883598zM752.016931 564.915697l-239.475132 0 0-278.123457-43.343915 0 0 321.467372 282.819048 0L752.016931 564.915697z" p-id="3235"></path></svg>